<svg xmlns="http://www.w3.org/2000/svg" width="512" height="512" viewBox="0 0 512 512" version="1.1"><path d="" stroke="none" fill="#1c2414" fill-rule="evenodd"/><path d="M 359.880 165.820 C 358.988 166.194, 353.528 172.156, 347.747 179.068 L 337.234 191.637 286.360 217.251 L 235.485 242.864 167.992 235.432 C 108.872 228.922, 98.195 227.996, 81.921 227.974 C 71.703 227.959, 61.053 228.439, 58.255 229.039 C 55.456 229.639, 50.541 231.706, 47.333 233.632 C 44.125 235.558, 40.375 238.154, 39 239.401 C 37.625 240.648, 33.923 242.895, 30.774 244.396 C 27.625 245.896, 24.137 248.403, 23.024 249.966 C 21.911 251.530, 21 253.916, 21 255.270 C 21 256.623, 21.947 258.935, 23.106 260.407 C 24.264 261.879, 28.731 264.853, 33.033 267.016 C 37.334 269.179, 45.972 272.500, 52.227 274.396 C 58.482 276.292, 69.652 278.756, 77.050 279.872 C 84.447 280.988, 102.200 283.280, 116.500 284.967 C 139.231 287.648, 144.135 288.550, 155.500 292.146 C 162.650 294.408, 169.073 296.415, 169.773 296.607 C 170.473 296.798, 171.316 297.659, 171.646 298.520 C 171.977 299.382, 172.078 300.255, 171.871 300.462 C 171.664 300.669, 167.446 299.992, 162.498 298.958 C 156.804 297.769, 149.249 297.064, 141.924 297.039 C 131.168 297.003, 130.204 297.159, 128.299 299.250 C 127.172 300.488, 125.646 302.625, 124.907 304 C 124.057 305.583, 123.620 309.435, 123.718 314.500 C 123.802 318.900, 124.260 323.812, 124.735 325.417 C 125.380 327.593, 126.602 328.681, 129.550 329.705 C 131.722 330.460, 137.387 331.751, 142.137 332.573 C 147.355 333.476, 155.242 333.955, 162.058 333.784 L 173.342 333.500 174.998 330.500 C 176.201 328.321, 177.591 327.361, 180.077 326.993 C 183.480 326.489, 183.528 326.537, 188.256 335.177 C 190.871 339.958, 193.796 344.086, 194.756 344.352 C 195.715 344.619, 199.200 345.122, 202.500 345.471 C 205.800 345.820, 209.901 346.345, 211.613 346.638 C 214.708 347.168, 214.772 347.089, 222.863 332.564 C 227.338 324.530, 231 317.705, 231 317.399 C 231 317.092, 229.537 317.135, 227.750 317.495 C 225.963 317.855, 223.713 318.371, 222.750 318.642 C 221.423 319.016, 221 318.538, 221 316.668 C 221 314.517, 221.544 314.133, 225.250 313.665 C 227.588 313.370, 231.075 312.842, 233 312.490 C 234.925 312.139, 237.175 311.626, 238 311.351 C 239.205 310.950, 239.059 310.491, 237.256 309.020 C 235.059 307.227, 235.258 307.200, 246.756 307.692 C 255.128 308.051, 261.515 307.709, 269 306.501 C 274.775 305.569, 281.300 304.861, 283.500 304.927 C 285.700 304.993, 294.475 306.039, 303 307.251 C 315.758 309.064, 322.922 309.446, 343.500 309.410 C 358.836 309.383, 375.844 308.698, 387.500 307.638 C 397.950 306.687, 411.191 305.255, 416.924 304.455 C 422.657 303.655, 428.650 303, 430.242 303 C 432.175 303, 434.924 304.457, 438.530 307.395 C 443.386 311.351, 444.621 311.859, 450.903 312.490 C 454.741 312.876, 458.358 312.897, 458.941 312.537 C 459.523 312.177, 460 308.838, 460 305.118 L 460 298.353 471.856 296.603 C 479.072 295.538, 484.943 294.105, 486.856 292.941 C 489.533 291.313, 490 290.439, 490 287.055 L 490 283.080 483.361 281.030 C 479.709 279.902, 474.984 278.701, 472.861 278.362 C 470.737 278.022, 469 277.445, 469 277.079 C 469 276.713, 473.950 271.788, 480 266.135 C 486.050 260.482, 491 255.439, 491 254.928 C 491 254.418, 488.290 254, 484.978 254 C 480.467 254, 477.348 254.729, 472.545 256.907 C 469.019 258.506, 466.312 259.293, 466.529 258.657 C 466.746 258.021, 470.766 244.642, 475.462 228.927 C 480.158 213.211, 484 199.608, 484 198.696 C 484 197.784, 482.988 196.804, 481.750 196.517 C 480.512 196.230, 475.469 195.556, 470.542 195.019 C 462.899 194.186, 461.226 194.277, 459.147 195.639 C 457.806 196.518, 444.390 209.528, 429.332 224.551 C 414.274 239.574, 399.252 253.670, 395.948 255.876 C 392.272 258.330, 388.188 260.149, 385.420 260.564 C 382.393 261.018, 375.372 260.369, 364.198 258.602 C 355.014 257.149, 334.450 254.416, 318.500 252.529 C 302.550 250.641, 288.150 248.917, 286.500 248.698 C 284.850 248.479, 286.762 248.232, 290.750 248.150 C 294.738 248.067, 298 247.600, 298 247.110 C 298 246.621, 295.941 245.252, 293.425 244.070 L 288.850 241.919 298.416 234.960 L 307.982 228 316.491 228 C 321.171 228, 325 227.618, 325 227.152 C 325 226.685, 323.200 225.492, 321 224.500 C 318.800 223.508, 317 222.415, 317 222.072 C 317 221.728, 323.484 216.606, 331.408 210.688 C 339.333 204.771, 347.095 198.264, 348.658 196.228 C 350.221 194.192, 354.733 186.692, 358.685 179.561 C 362.636 172.431, 365.647 166.238, 365.376 165.799 C 365.104 165.359, 364.121 165.032, 363.191 165.070 C 362.261 165.109, 360.771 165.446, 359.880 165.820" stroke="none" fill="#1c1c1c" fill-rule="evenodd"/></svg>