<svg xmlns="http://www.w3.org/2000/svg" width="900" height="520" viewBox="0 0 900 520">
<style>text{font-family:Arial,sans-serif;fill:#222}.grid{stroke:#ddd;stroke-width:1}.axis{stroke:#222;stroke-width:1.5}.line{fill:none;stroke-width:2.5}.point{stroke:#fff;stroke-width:1}</style>
<rect width="900" height="520" fill="white"/>
<text x="450.0" y="28" text-anchor="middle" font-size="19">Sliding Mean: mean update latency</text>
<line class="grid" x1="95" y1="55.0" x2="875" y2="55.0"/>
<text x="85" y="59.0" text-anchor="end" font-size="12">4.7e+03</text>
<line class="grid" x1="95" y1="133.0" x2="875" y2="133.0"/>
<text x="85" y="137.0" text-anchor="end" font-size="12">1.2e+03</text>
<line class="grid" x1="95" y1="211.0" x2="875" y2="211.0"/>
<text x="85" y="215.0" text-anchor="end" font-size="12">2.8e+02</text>
<line class="grid" x1="95" y1="289.0" x2="875" y2="289.0"/>
<text x="85" y="293.0" text-anchor="end" font-size="12">69</text>
<line class="grid" x1="95" y1="367.0" x2="875" y2="367.0"/>
<text x="85" y="371.0" text-anchor="end" font-size="12">17</text>
<line class="grid" x1="95" y1="445.0" x2="875" y2="445.0"/>
<text x="85" y="449.0" text-anchor="end" font-size="12">4.1</text>
<text x="95.0" y="468" text-anchor="middle" font-size="12">4</text>
<text x="251.0" y="468" text-anchor="middle" font-size="12">16</text>
<text x="407.0" y="468" text-anchor="middle" font-size="12">64</text>
<text x="563.0" y="468" text-anchor="middle" font-size="12">256</text>
<text x="719.0" y="468" text-anchor="middle" font-size="12">1024</text>
<text x="875.0" y="468" text-anchor="middle" font-size="12">4096</text>
<line class="axis" x1="95" y1="55" x2="95" y2="445"/>
<line class="axis" x1="95" y1="445" x2="875" y2="445"/>
<text x="485.0" y="500" text-anchor="middle" font-size="14">Window or message size</text>
<text x="20" y="250.0" transform="rotate(-90 20 250.0)" text-anchor="middle" font-size="14">Mean latency (ns) (log scale)</text>
<polyline class="line" stroke="#1f77b4" points="95.0,429.0 251.0,426.4 407.0,410.8 563.0,411.2 719.0,412.1 875.0,402.8"/>
<circle class="point" fill="#1f77b4" cx="95.0" cy="429.0" r="4"/>
<circle class="point" fill="#1f77b4" cx="251.0" cy="426.4" r="4"/>
<circle class="point" fill="#1f77b4" cx="407.0" cy="410.8" r="4"/>
<circle class="point" fill="#1f77b4" cx="563.0" cy="411.2" r="4"/>
<circle class="point" fill="#1f77b4" cx="719.0" cy="412.1" r="4"/>
<circle class="point" fill="#1f77b4" cx="875.0" cy="402.8" r="4"/>
<line x1="107" y1="69" x2="131" y2="69" stroke="#1f77b4" stroke-width="3"/>
<text x="138" y="73" font-size="12">explicit_incremental</text>
<polyline class="line" stroke="#d62728" points="95.0,445.0 251.0,414.3 407.0,338.7 563.0,227.3 719.0,149.5 875.0,55.0"/>
<circle class="point" fill="#d62728" cx="95.0" cy="445.0" r="4"/>
<circle class="point" fill="#d62728" cx="251.0" cy="414.3" r="4"/>
<circle class="point" fill="#d62728" cx="407.0" cy="338.7" r="4"/>
<circle class="point" fill="#d62728" cx="563.0" cy="227.3" r="4"/>
<circle class="point" fill="#d62728" cx="719.0" cy="149.5" r="4"/>
<circle class="point" fill="#d62728" cx="875.0" cy="55.0" r="4"/>
<line x1="107" y1="90" x2="131" y2="90" stroke="#d62728" stroke-width="3"/>
<text x="138" y="94" font-size="12">full_recompute</text>
<polyline class="line" stroke="#2ca02c" points="95.0,428.2 251.0,419.6 407.0,416.5 563.0,408.6 719.0,380.7 875.0,409.0"/>
<circle class="point" fill="#2ca02c" cx="95.0" cy="428.2" r="4"/>
<circle class="point" fill="#2ca02c" cx="251.0" cy="419.6" r="4"/>
<circle class="point" fill="#2ca02c" cx="407.0" cy="416.5" r="4"/>
<circle class="point" fill="#2ca02c" cx="563.0" cy="408.6" r="4"/>
<circle class="point" fill="#2ca02c" cx="719.0" cy="380.7" r="4"/>
<circle class="point" fill="#2ca02c" cx="875.0" cy="409.0" r="4"/>
<line x1="107" y1="111" x2="131" y2="111" stroke="#2ca02c" stroke-width="3"/>
<text x="138" y="115" font-size="12">hidden_incremental</text>
</svg>